G04 #@! TF.GenerationSoftware,KiCad,Pcbnew,(5.1.2)-2*
G04 #@! TF.CreationDate,2019-08-16T13:36:03-06:00*
G04 #@! TF.ProjectId,OLED_Dev,4f4c4544-5f44-4657-962e-6b696361645f,rev?*
G04 #@! TF.SameCoordinates,Original*
G04 #@! TF.FileFunction,Copper,L1,Top*
G04 #@! TF.FilePolarity,Positive*
%FSLAX46Y46*%
G04 Gerber Fmt 4.6, Leading zero omitted, Abs format (unit mm)*
G04 Created by KiCad (PCBNEW (5.1.2)-2) date 2019-08-16 13:36:03*
%MOMM*%
%LPD*%
G04 APERTURE LIST*
%ADD10O,0.850000X0.850000*%
%ADD11R,0.850000X0.850000*%
%ADD12R,2.300000X2.650000*%
%ADD13R,1.400000X0.300000*%
%ADD14C,0.250000*%
%ADD15C,0.254000*%
G04 APERTURE END LIST*
D10*
X182880000Y-121680000D03*
X182880000Y-120680000D03*
X182880000Y-119680000D03*
X182880000Y-118680000D03*
X182880000Y-117680000D03*
X182880000Y-116680000D03*
X182880000Y-115680000D03*
X182880000Y-114680000D03*
X182880000Y-113680000D03*
X182880000Y-112680000D03*
X182880000Y-111680000D03*
X182880000Y-110680000D03*
X182880000Y-109680000D03*
X182880000Y-108680000D03*
X182880000Y-107680000D03*
D11*
X182880000Y-106680000D03*
D10*
X167640000Y-106680000D03*
X167640000Y-107680000D03*
X167640000Y-108680000D03*
X167640000Y-109680000D03*
X167640000Y-110680000D03*
X167640000Y-111680000D03*
X167640000Y-112680000D03*
X167640000Y-113680000D03*
X167640000Y-114680000D03*
X167640000Y-115680000D03*
X167640000Y-116680000D03*
X167640000Y-117680000D03*
X167640000Y-118680000D03*
X167640000Y-119680000D03*
X167640000Y-120680000D03*
D11*
X167640000Y-121680000D03*
D12*
X176260000Y-124075000D03*
X176260000Y-104525000D03*
D13*
X177510000Y-122300000D03*
X177510000Y-121800000D03*
X177510000Y-121300000D03*
X177510000Y-120800000D03*
X177510000Y-120300000D03*
X177510000Y-119800000D03*
X177510000Y-119300000D03*
X177510000Y-118800000D03*
X177510000Y-118300000D03*
X177510000Y-117800000D03*
X177510000Y-117300000D03*
X177510000Y-116800000D03*
X177510000Y-116300000D03*
X177510000Y-115800000D03*
X177510000Y-115300000D03*
X177510000Y-114800000D03*
X177510000Y-114300000D03*
X177510000Y-113800000D03*
X177510000Y-113300000D03*
X177510000Y-112800000D03*
X177510000Y-112300000D03*
X177510000Y-111800000D03*
X177510000Y-111300000D03*
X177510000Y-110800000D03*
X177510000Y-110300000D03*
X177510000Y-109800000D03*
X177510000Y-109300000D03*
X177510000Y-108800000D03*
X177510000Y-108300000D03*
X177510000Y-107800000D03*
X177510000Y-107300000D03*
X177510000Y-106800000D03*
X177510000Y-106300000D03*
D14*
X176560000Y-106300000D02*
X177510000Y-106300000D01*
X176460000Y-106300000D02*
X176560000Y-106300000D01*
X176260000Y-106100000D02*
X176460000Y-106300000D01*
X176260000Y-104525000D02*
X176260000Y-106100000D01*
X176560000Y-122300000D02*
X177510000Y-122300000D01*
X176460000Y-122300000D02*
X176560000Y-122300000D01*
X176260000Y-122500000D02*
X176460000Y-122300000D01*
X176260000Y-124075000D02*
X176260000Y-122500000D01*
X168315000Y-121680000D02*
X167640000Y-121680000D01*
X168435000Y-121800000D02*
X168315000Y-121680000D01*
X177510000Y-121800000D02*
X168435000Y-121800000D01*
X176560000Y-121300000D02*
X177510000Y-121300000D01*
X168571410Y-121300000D02*
X176560000Y-121300000D01*
X167951410Y-120680000D02*
X168571410Y-121300000D01*
X167640000Y-120680000D02*
X167951410Y-120680000D01*
X176560000Y-120800000D02*
X177510000Y-120800000D01*
X168870002Y-120800000D02*
X176560000Y-120800000D01*
X167750002Y-119680000D02*
X168870002Y-120800000D01*
X167640000Y-119680000D02*
X167750002Y-119680000D01*
X167640000Y-118680000D02*
X169480000Y-118680000D01*
X171100000Y-120300000D02*
X177510000Y-120300000D01*
X169480000Y-118680000D02*
X171100000Y-120300000D01*
X167640000Y-117680000D02*
X171020000Y-117680000D01*
X173140000Y-119800000D02*
X177510000Y-119800000D01*
X171020000Y-117680000D02*
X173140000Y-119800000D01*
X175180000Y-119300000D02*
X177510000Y-119300000D01*
X167640000Y-116680000D02*
X172560000Y-116680000D01*
X172560000Y-116680000D02*
X175180000Y-119300000D01*
X168241040Y-115680000D02*
X167640000Y-115680000D01*
X173440000Y-115680000D02*
X168241040Y-115680000D01*
X176560000Y-118800000D02*
X173440000Y-115680000D01*
X177510000Y-118800000D02*
X176560000Y-118800000D01*
X182278960Y-121680000D02*
X182880000Y-121680000D01*
X181840000Y-121680000D02*
X182278960Y-121680000D01*
X178460000Y-118300000D02*
X181840000Y-121680000D01*
X177510000Y-118300000D02*
X178460000Y-118300000D01*
X177514999Y-117824999D02*
X179038999Y-117824999D01*
X177510000Y-117800000D02*
X177510000Y-117820000D01*
X177510000Y-117820000D02*
X177514999Y-117824999D01*
X181894000Y-120680000D02*
X182880000Y-120680000D01*
X179038999Y-117824999D02*
X181894000Y-120680000D01*
X177510000Y-117300000D02*
X179403000Y-117300000D01*
X181783000Y-119680000D02*
X182880000Y-119680000D01*
X179403000Y-117300000D02*
X181783000Y-119680000D01*
X178444990Y-116849990D02*
X179841990Y-116849990D01*
X177510000Y-116800000D02*
X178395000Y-116800000D01*
X178395000Y-116800000D02*
X178444990Y-116849990D01*
X181672000Y-118680000D02*
X182880000Y-118680000D01*
X179841990Y-116849990D02*
X181672000Y-118680000D01*
X177510000Y-116300000D02*
X180308000Y-116300000D01*
X181688000Y-117680000D02*
X182880000Y-117680000D01*
X180308000Y-116300000D02*
X181688000Y-117680000D01*
X177510000Y-115800000D02*
X181205000Y-115800000D01*
X182085000Y-116680000D02*
X182880000Y-116680000D01*
X181205000Y-115800000D02*
X182085000Y-116680000D01*
X182769998Y-115680000D02*
X182880000Y-115680000D01*
X182389998Y-115300000D02*
X182769998Y-115680000D01*
X177510000Y-115300000D02*
X182389998Y-115300000D01*
X182278960Y-114680000D02*
X182880000Y-114680000D01*
X182183959Y-114775001D02*
X182278960Y-114680000D01*
X178086999Y-114775001D02*
X182183959Y-114775001D01*
X178062000Y-114800000D02*
X178086999Y-114775001D01*
X177510000Y-114800000D02*
X178062000Y-114800000D01*
X177510000Y-114300000D02*
X181483000Y-114300000D01*
X182103000Y-113680000D02*
X182880000Y-113680000D01*
X181483000Y-114300000D02*
X182103000Y-113680000D01*
X177510000Y-113800000D02*
X180840000Y-113800000D01*
X181960000Y-112680000D02*
X182880000Y-112680000D01*
X180840000Y-113800000D02*
X181960000Y-112680000D01*
X177510000Y-113300000D02*
X179943000Y-113300000D01*
X181563000Y-111680000D02*
X182880000Y-111680000D01*
X179943000Y-113300000D02*
X181563000Y-111680000D01*
X178460000Y-112800000D02*
X178484000Y-112776000D01*
X177510000Y-112800000D02*
X178460000Y-112800000D01*
X178484000Y-112776000D02*
X179451000Y-112776000D01*
X181547000Y-110680000D02*
X182880000Y-110680000D01*
X179451000Y-112776000D02*
X181547000Y-110680000D01*
X178460000Y-112300000D02*
X178492000Y-112268000D01*
X177510000Y-112300000D02*
X178460000Y-112300000D01*
X178492000Y-112268000D02*
X179197000Y-112268000D01*
X181785000Y-109680000D02*
X182880000Y-109680000D01*
X179197000Y-112268000D02*
X181785000Y-109680000D01*
X177510000Y-111800000D02*
X178776000Y-111800000D01*
X181896000Y-108680000D02*
X182880000Y-108680000D01*
X178776000Y-111800000D02*
X181896000Y-108680000D01*
X176574998Y-111300000D02*
X177510000Y-111300000D01*
X173194998Y-114680000D02*
X176574998Y-111300000D01*
X167640000Y-114680000D02*
X173194998Y-114680000D01*
X167640000Y-113680000D02*
X172451000Y-113680000D01*
X175331000Y-110800000D02*
X177510000Y-110800000D01*
X172451000Y-113680000D02*
X175331000Y-110800000D01*
X167640000Y-112680000D02*
X171354000Y-112680000D01*
X173734000Y-110300000D02*
X177510000Y-110300000D01*
X171354000Y-112680000D02*
X173734000Y-110300000D01*
X176560000Y-109800000D02*
X177510000Y-109800000D01*
X173597590Y-109800000D02*
X176560000Y-109800000D01*
X171764590Y-111633000D02*
X173597590Y-109800000D01*
X168288040Y-111633000D02*
X171764590Y-111633000D01*
X168241040Y-111680000D02*
X168288040Y-111633000D01*
X167640000Y-111680000D02*
X168241040Y-111680000D01*
X168241040Y-110680000D02*
X168304040Y-110617000D01*
X167640000Y-110680000D02*
X168241040Y-110680000D01*
X168304040Y-110617000D02*
X171323000Y-110617000D01*
X172640000Y-109300000D02*
X177510000Y-109300000D01*
X171323000Y-110617000D02*
X172640000Y-109300000D01*
X177510000Y-108800000D02*
X180125000Y-108800000D01*
X181245000Y-107680000D02*
X182880000Y-107680000D01*
X180125000Y-108800000D02*
X181245000Y-107680000D01*
X177510000Y-108300000D02*
X179101000Y-108300000D01*
X180721000Y-106680000D02*
X182880000Y-106680000D01*
X179101000Y-108300000D02*
X180721000Y-106680000D01*
X172743000Y-107800000D02*
X177510000Y-107800000D01*
X170942000Y-109601000D02*
X172743000Y-107800000D01*
X168320040Y-109601000D02*
X170942000Y-109601000D01*
X167640000Y-109680000D02*
X168241040Y-109680000D01*
X168241040Y-109680000D02*
X168320040Y-109601000D01*
X171465000Y-107300000D02*
X177510000Y-107300000D01*
X170180000Y-108585000D02*
X171465000Y-107300000D01*
X168336040Y-108585000D02*
X170180000Y-108585000D01*
X167640000Y-108680000D02*
X168241040Y-108680000D01*
X168241040Y-108680000D02*
X168336040Y-108585000D01*
X177510000Y-106800000D02*
X170300000Y-106800000D01*
X169420000Y-107680000D02*
X167640000Y-107680000D01*
X170300000Y-106800000D02*
X169420000Y-107680000D01*
D15*
G36*
X180844692Y-101745664D02*
G01*
X181266168Y-101801151D01*
X181681198Y-101893162D01*
X182086620Y-102020991D01*
X182479375Y-102183675D01*
X182856434Y-102379960D01*
X183214968Y-102608371D01*
X183552230Y-102867161D01*
X183865646Y-103154354D01*
X184152839Y-103467770D01*
X184411629Y-103805032D01*
X184640040Y-104163566D01*
X184836325Y-104540625D01*
X184999009Y-104933380D01*
X185126838Y-105338802D01*
X185218849Y-105753832D01*
X185274336Y-106175308D01*
X185293000Y-106602769D01*
X185293000Y-121997231D01*
X185274336Y-122424692D01*
X185218849Y-122846168D01*
X185126838Y-123261198D01*
X184999009Y-123666620D01*
X184836325Y-124059375D01*
X184640040Y-124436434D01*
X184411629Y-124794968D01*
X184152839Y-125132230D01*
X183865646Y-125445646D01*
X183552230Y-125732839D01*
X183214968Y-125991629D01*
X182856434Y-126220040D01*
X182479375Y-126416325D01*
X182086620Y-126579009D01*
X181681198Y-126706838D01*
X181266168Y-126798849D01*
X180844692Y-126854336D01*
X180417231Y-126873000D01*
X170102769Y-126873000D01*
X169675308Y-126854336D01*
X169253832Y-126798849D01*
X168838802Y-126706838D01*
X168433380Y-126579009D01*
X168040625Y-126416325D01*
X167663566Y-126220040D01*
X167305032Y-125991629D01*
X166967770Y-125732839D01*
X166654354Y-125445646D01*
X166612528Y-125400000D01*
X174471928Y-125400000D01*
X174484188Y-125524482D01*
X174520498Y-125644180D01*
X174579463Y-125754494D01*
X174658815Y-125851185D01*
X174755506Y-125930537D01*
X174865820Y-125989502D01*
X174985518Y-126025812D01*
X175110000Y-126038072D01*
X175974250Y-126035000D01*
X176133000Y-125876250D01*
X176133000Y-124202000D01*
X176387000Y-124202000D01*
X176387000Y-125876250D01*
X176545750Y-126035000D01*
X177410000Y-126038072D01*
X177534482Y-126025812D01*
X177654180Y-125989502D01*
X177764494Y-125930537D01*
X177861185Y-125851185D01*
X177940537Y-125754494D01*
X177999502Y-125644180D01*
X178035812Y-125524482D01*
X178048072Y-125400000D01*
X178045000Y-124360750D01*
X177886250Y-124202000D01*
X176387000Y-124202000D01*
X176133000Y-124202000D01*
X174633750Y-124202000D01*
X174475000Y-124360750D01*
X174471928Y-125400000D01*
X166612528Y-125400000D01*
X166367161Y-125132230D01*
X166108371Y-124794968D01*
X165879960Y-124436434D01*
X165683675Y-124059375D01*
X165520991Y-123666620D01*
X165393162Y-123261198D01*
X165301151Y-122846168D01*
X165245664Y-122424692D01*
X165227000Y-121997231D01*
X165227000Y-107680000D01*
X166574872Y-107680000D01*
X166595338Y-107887796D01*
X166655950Y-108087607D01*
X166705335Y-108180000D01*
X166655950Y-108272393D01*
X166595338Y-108472204D01*
X166574872Y-108680000D01*
X166595338Y-108887796D01*
X166655950Y-109087607D01*
X166705335Y-109180000D01*
X166655950Y-109272393D01*
X166595338Y-109472204D01*
X166574872Y-109680000D01*
X166595338Y-109887796D01*
X166655950Y-110087607D01*
X166705335Y-110180000D01*
X166655950Y-110272393D01*
X166595338Y-110472204D01*
X166574872Y-110680000D01*
X166595338Y-110887796D01*
X166655950Y-111087607D01*
X166705335Y-111180000D01*
X166655950Y-111272393D01*
X166595338Y-111472204D01*
X166574872Y-111680000D01*
X166595338Y-111887796D01*
X166655950Y-112087607D01*
X166705335Y-112180000D01*
X166655950Y-112272393D01*
X166595338Y-112472204D01*
X166574872Y-112680000D01*
X166595338Y-112887796D01*
X166655950Y-113087607D01*
X166705335Y-113180000D01*
X166655950Y-113272393D01*
X166595338Y-113472204D01*
X166574872Y-113680000D01*
X166595338Y-113887796D01*
X166655950Y-114087607D01*
X166705335Y-114180000D01*
X166655950Y-114272393D01*
X166595338Y-114472204D01*
X166574872Y-114680000D01*
X166595338Y-114887796D01*
X166655950Y-115087607D01*
X166705335Y-115180000D01*
X166655950Y-115272393D01*
X166595338Y-115472204D01*
X166574872Y-115680000D01*
X166595338Y-115887796D01*
X166655950Y-116087607D01*
X166705335Y-116180000D01*
X166655950Y-116272393D01*
X166595338Y-116472204D01*
X166574872Y-116680000D01*
X166595338Y-116887796D01*
X166655950Y-117087607D01*
X166705335Y-117180000D01*
X166655950Y-117272393D01*
X166595338Y-117472204D01*
X166574872Y-117680000D01*
X166595338Y-117887796D01*
X166655950Y-118087607D01*
X166705335Y-118180000D01*
X166655950Y-118272393D01*
X166595338Y-118472204D01*
X166574872Y-118680000D01*
X166595338Y-118887796D01*
X166655950Y-119087607D01*
X166705335Y-119180000D01*
X166655950Y-119272393D01*
X166595338Y-119472204D01*
X166574872Y-119680000D01*
X166595338Y-119887796D01*
X166655950Y-120087607D01*
X166705335Y-120180000D01*
X166655950Y-120272393D01*
X166595338Y-120472204D01*
X166574872Y-120680000D01*
X166595338Y-120887796D01*
X166630065Y-121002276D01*
X166625498Y-121010820D01*
X166589188Y-121130518D01*
X166576928Y-121255000D01*
X166576928Y-122105000D01*
X166589188Y-122229482D01*
X166625498Y-122349180D01*
X166684463Y-122459494D01*
X166763815Y-122556185D01*
X166860506Y-122635537D01*
X166970820Y-122694502D01*
X167090518Y-122730812D01*
X167215000Y-122743072D01*
X168065000Y-122743072D01*
X168189482Y-122730812D01*
X168309180Y-122694502D01*
X168419494Y-122635537D01*
X168511536Y-122560000D01*
X174504063Y-122560000D01*
X174484188Y-122625518D01*
X174471928Y-122750000D01*
X174475000Y-123789250D01*
X174633750Y-123948000D01*
X176133000Y-123948000D01*
X176133000Y-123928000D01*
X176387000Y-123928000D01*
X176387000Y-123948000D01*
X177886250Y-123948000D01*
X178045000Y-123789250D01*
X178047076Y-123086861D01*
X178200046Y-123087994D01*
X178324704Y-123077677D01*
X178444954Y-123043239D01*
X178556174Y-122986003D01*
X178654092Y-122908169D01*
X178734943Y-122812727D01*
X178795621Y-122703346D01*
X178833794Y-122584229D01*
X178845000Y-122481750D01*
X178707725Y-122344475D01*
X178740537Y-122304494D01*
X178799502Y-122194180D01*
X178812753Y-122150497D01*
X178845000Y-122118250D01*
X178837898Y-122053302D01*
X178848072Y-121950000D01*
X178848072Y-121650000D01*
X178838223Y-121550000D01*
X178848072Y-121450000D01*
X178848072Y-121150000D01*
X178838223Y-121050000D01*
X178848072Y-120950000D01*
X178848072Y-120650000D01*
X178838223Y-120550000D01*
X178848072Y-120450000D01*
X178848072Y-120150000D01*
X178838223Y-120050000D01*
X178848072Y-119950000D01*
X178848072Y-119762873D01*
X181276200Y-122191002D01*
X181299999Y-122220001D01*
X181415724Y-122314974D01*
X181547753Y-122385546D01*
X181691014Y-122429003D01*
X181802667Y-122440000D01*
X181802677Y-122440000D01*
X181840000Y-122443676D01*
X181877323Y-122440000D01*
X182135177Y-122440000D01*
X182288247Y-122565622D01*
X182472393Y-122664050D01*
X182672204Y-122724662D01*
X182827934Y-122740000D01*
X182932066Y-122740000D01*
X183087796Y-122724662D01*
X183287607Y-122664050D01*
X183471753Y-122565622D01*
X183633159Y-122433159D01*
X183765622Y-122271753D01*
X183864050Y-122087607D01*
X183924662Y-121887796D01*
X183945128Y-121680000D01*
X183924662Y-121472204D01*
X183864050Y-121272393D01*
X183814665Y-121180000D01*
X183864050Y-121087607D01*
X183924662Y-120887796D01*
X183945128Y-120680000D01*
X183924662Y-120472204D01*
X183864050Y-120272393D01*
X183814665Y-120180000D01*
X183864050Y-120087607D01*
X183924662Y-119887796D01*
X183945128Y-119680000D01*
X183924662Y-119472204D01*
X183864050Y-119272393D01*
X183814665Y-119180000D01*
X183864050Y-119087607D01*
X183924662Y-118887796D01*
X183945128Y-118680000D01*
X183924662Y-118472204D01*
X183864050Y-118272393D01*
X183814665Y-118180000D01*
X183864050Y-118087607D01*
X183924662Y-117887796D01*
X183945128Y-117680000D01*
X183924662Y-117472204D01*
X183864050Y-117272393D01*
X183814665Y-117180000D01*
X183864050Y-117087607D01*
X183924662Y-116887796D01*
X183945128Y-116680000D01*
X183924662Y-116472204D01*
X183864050Y-116272393D01*
X183814665Y-116180000D01*
X183864050Y-116087607D01*
X183924662Y-115887796D01*
X183945128Y-115680000D01*
X183924662Y-115472204D01*
X183864050Y-115272393D01*
X183814665Y-115180000D01*
X183864050Y-115087607D01*
X183924662Y-114887796D01*
X183945128Y-114680000D01*
X183924662Y-114472204D01*
X183864050Y-114272393D01*
X183814665Y-114180000D01*
X183864050Y-114087607D01*
X183924662Y-113887796D01*
X183945128Y-113680000D01*
X183924662Y-113472204D01*
X183864050Y-113272393D01*
X183814665Y-113180000D01*
X183864050Y-113087607D01*
X183924662Y-112887796D01*
X183945128Y-112680000D01*
X183924662Y-112472204D01*
X183864050Y-112272393D01*
X183814665Y-112180000D01*
X183864050Y-112087607D01*
X183924662Y-111887796D01*
X183945128Y-111680000D01*
X183924662Y-111472204D01*
X183864050Y-111272393D01*
X183814665Y-111180000D01*
X183864050Y-111087607D01*
X183924662Y-110887796D01*
X183945128Y-110680000D01*
X183924662Y-110472204D01*
X183864050Y-110272393D01*
X183814665Y-110180000D01*
X183864050Y-110087607D01*
X183924662Y-109887796D01*
X183945128Y-109680000D01*
X183924662Y-109472204D01*
X183864050Y-109272393D01*
X183814665Y-109180000D01*
X183864050Y-109087607D01*
X183924662Y-108887796D01*
X183945128Y-108680000D01*
X183924662Y-108472204D01*
X183864050Y-108272393D01*
X183814665Y-108180000D01*
X183864050Y-108087607D01*
X183924662Y-107887796D01*
X183945128Y-107680000D01*
X183924662Y-107472204D01*
X183889935Y-107357724D01*
X183894502Y-107349180D01*
X183930812Y-107229482D01*
X183943072Y-107105000D01*
X183943072Y-106255000D01*
X183930812Y-106130518D01*
X183894502Y-106010820D01*
X183835537Y-105900506D01*
X183756185Y-105803815D01*
X183659494Y-105724463D01*
X183549180Y-105665498D01*
X183429482Y-105629188D01*
X183305000Y-105616928D01*
X182455000Y-105616928D01*
X182330518Y-105629188D01*
X182210820Y-105665498D01*
X182100506Y-105724463D01*
X182003815Y-105803815D01*
X181924463Y-105900506D01*
X181914043Y-105920000D01*
X180758323Y-105920000D01*
X180721000Y-105916324D01*
X180683677Y-105920000D01*
X180683667Y-105920000D01*
X180572014Y-105930997D01*
X180428753Y-105974454D01*
X180296723Y-106045026D01*
X180213083Y-106113668D01*
X180180999Y-106139999D01*
X180157201Y-106168997D01*
X178844999Y-107481200D01*
X178848072Y-107450000D01*
X178848072Y-107150000D01*
X178838223Y-107050000D01*
X178848072Y-106950000D01*
X178848072Y-106650000D01*
X178837898Y-106546698D01*
X178845000Y-106481750D01*
X178812753Y-106449503D01*
X178799502Y-106405820D01*
X178740537Y-106295506D01*
X178707725Y-106255525D01*
X178845000Y-106118250D01*
X178833794Y-106015771D01*
X178795621Y-105896654D01*
X178734943Y-105787273D01*
X178654092Y-105691831D01*
X178556174Y-105613997D01*
X178444954Y-105556761D01*
X178324704Y-105522323D01*
X178200046Y-105512006D01*
X178047076Y-105513139D01*
X178045000Y-104810750D01*
X177886250Y-104652000D01*
X176387000Y-104652000D01*
X176387000Y-104672000D01*
X176133000Y-104672000D01*
X176133000Y-104652000D01*
X174633750Y-104652000D01*
X174475000Y-104810750D01*
X174471928Y-105850000D01*
X174484188Y-105974482D01*
X174504063Y-106040000D01*
X170337323Y-106040000D01*
X170300000Y-106036324D01*
X170262677Y-106040000D01*
X170262667Y-106040000D01*
X170151014Y-106050997D01*
X170008656Y-106094180D01*
X170007753Y-106094454D01*
X169875723Y-106165026D01*
X169827632Y-106204494D01*
X169759999Y-106259999D01*
X169736201Y-106288997D01*
X169105199Y-106920000D01*
X168620463Y-106920000D01*
X168532257Y-106807000D01*
X168247133Y-106807000D01*
X168231753Y-106794378D01*
X168047607Y-106695950D01*
X167847796Y-106635338D01*
X167692066Y-106620000D01*
X167587934Y-106620000D01*
X167432204Y-106635338D01*
X167232393Y-106695950D01*
X167048247Y-106794378D01*
X167032867Y-106807000D01*
X166747743Y-106807000D01*
X166620460Y-106970062D01*
X166631128Y-107005250D01*
X166706302Y-107178191D01*
X166655950Y-107272393D01*
X166595338Y-107472204D01*
X166574872Y-107680000D01*
X165227000Y-107680000D01*
X165227000Y-106602769D01*
X165236292Y-106389938D01*
X166620460Y-106389938D01*
X166747743Y-106553000D01*
X167513000Y-106553000D01*
X167513000Y-105786379D01*
X167767000Y-105786379D01*
X167767000Y-106553000D01*
X168532257Y-106553000D01*
X168659540Y-106389938D01*
X168648872Y-106354750D01*
X168566034Y-106164178D01*
X168447609Y-105993429D01*
X168298148Y-105849064D01*
X168123394Y-105736632D01*
X167930064Y-105660453D01*
X167767000Y-105786379D01*
X167513000Y-105786379D01*
X167349936Y-105660453D01*
X167156606Y-105736632D01*
X166981852Y-105849064D01*
X166832391Y-105993429D01*
X166713966Y-106164178D01*
X166631128Y-106354750D01*
X166620460Y-106389938D01*
X165236292Y-106389938D01*
X165245664Y-106175308D01*
X165301151Y-105753832D01*
X165393162Y-105338802D01*
X165520991Y-104933380D01*
X165683675Y-104540625D01*
X165879960Y-104163566D01*
X166108371Y-103805032D01*
X166367161Y-103467770D01*
X166612527Y-103200000D01*
X174471928Y-103200000D01*
X174475000Y-104239250D01*
X174633750Y-104398000D01*
X176133000Y-104398000D01*
X176133000Y-102723750D01*
X176387000Y-102723750D01*
X176387000Y-104398000D01*
X177886250Y-104398000D01*
X178045000Y-104239250D01*
X178048072Y-103200000D01*
X178035812Y-103075518D01*
X177999502Y-102955820D01*
X177940537Y-102845506D01*
X177861185Y-102748815D01*
X177764494Y-102669463D01*
X177654180Y-102610498D01*
X177534482Y-102574188D01*
X177410000Y-102561928D01*
X176545750Y-102565000D01*
X176387000Y-102723750D01*
X176133000Y-102723750D01*
X175974250Y-102565000D01*
X175110000Y-102561928D01*
X174985518Y-102574188D01*
X174865820Y-102610498D01*
X174755506Y-102669463D01*
X174658815Y-102748815D01*
X174579463Y-102845506D01*
X174520498Y-102955820D01*
X174484188Y-103075518D01*
X174471928Y-103200000D01*
X166612527Y-103200000D01*
X166654354Y-103154354D01*
X166967770Y-102867161D01*
X167305032Y-102608371D01*
X167663566Y-102379960D01*
X168040625Y-102183675D01*
X168433380Y-102020991D01*
X168838802Y-101893162D01*
X169253832Y-101801151D01*
X169675308Y-101745664D01*
X170102769Y-101727000D01*
X180417231Y-101727000D01*
X180844692Y-101745664D01*
X180844692Y-101745664D01*
G37*
X180844692Y-101745664D02*
X181266168Y-101801151D01*
X181681198Y-101893162D01*
X182086620Y-102020991D01*
X182479375Y-102183675D01*
X182856434Y-102379960D01*
X183214968Y-102608371D01*
X183552230Y-102867161D01*
X183865646Y-103154354D01*
X184152839Y-103467770D01*
X184411629Y-103805032D01*
X184640040Y-104163566D01*
X184836325Y-104540625D01*
X184999009Y-104933380D01*
X185126838Y-105338802D01*
X185218849Y-105753832D01*
X185274336Y-106175308D01*
X185293000Y-106602769D01*
X185293000Y-121997231D01*
X185274336Y-122424692D01*
X185218849Y-122846168D01*
X185126838Y-123261198D01*
X184999009Y-123666620D01*
X184836325Y-124059375D01*
X184640040Y-124436434D01*
X184411629Y-124794968D01*
X184152839Y-125132230D01*
X183865646Y-125445646D01*
X183552230Y-125732839D01*
X183214968Y-125991629D01*
X182856434Y-126220040D01*
X182479375Y-126416325D01*
X182086620Y-126579009D01*
X181681198Y-126706838D01*
X181266168Y-126798849D01*
X180844692Y-126854336D01*
X180417231Y-126873000D01*
X170102769Y-126873000D01*
X169675308Y-126854336D01*
X169253832Y-126798849D01*
X168838802Y-126706838D01*
X168433380Y-126579009D01*
X168040625Y-126416325D01*
X167663566Y-126220040D01*
X167305032Y-125991629D01*
X166967770Y-125732839D01*
X166654354Y-125445646D01*
X166612528Y-125400000D01*
X174471928Y-125400000D01*
X174484188Y-125524482D01*
X174520498Y-125644180D01*
X174579463Y-125754494D01*
X174658815Y-125851185D01*
X174755506Y-125930537D01*
X174865820Y-125989502D01*
X174985518Y-126025812D01*
X175110000Y-126038072D01*
X175974250Y-126035000D01*
X176133000Y-125876250D01*
X176133000Y-124202000D01*
X176387000Y-124202000D01*
X176387000Y-125876250D01*
X176545750Y-126035000D01*
X177410000Y-126038072D01*
X177534482Y-126025812D01*
X177654180Y-125989502D01*
X177764494Y-125930537D01*
X177861185Y-125851185D01*
X177940537Y-125754494D01*
X177999502Y-125644180D01*
X178035812Y-125524482D01*
X178048072Y-125400000D01*
X178045000Y-124360750D01*
X177886250Y-124202000D01*
X176387000Y-124202000D01*
X176133000Y-124202000D01*
X174633750Y-124202000D01*
X174475000Y-124360750D01*
X174471928Y-125400000D01*
X166612528Y-125400000D01*
X166367161Y-125132230D01*
X166108371Y-124794968D01*
X165879960Y-124436434D01*
X165683675Y-124059375D01*
X165520991Y-123666620D01*
X165393162Y-123261198D01*
X165301151Y-122846168D01*
X165245664Y-122424692D01*
X165227000Y-121997231D01*
X165227000Y-107680000D01*
X166574872Y-107680000D01*
X166595338Y-107887796D01*
X166655950Y-108087607D01*
X166705335Y-108180000D01*
X166655950Y-108272393D01*
X166595338Y-108472204D01*
X166574872Y-108680000D01*
X166595338Y-108887796D01*
X166655950Y-109087607D01*
X166705335Y-109180000D01*
X166655950Y-109272393D01*
X166595338Y-109472204D01*
X166574872Y-109680000D01*
X166595338Y-109887796D01*
X166655950Y-110087607D01*
X166705335Y-110180000D01*
X166655950Y-110272393D01*
X166595338Y-110472204D01*
X166574872Y-110680000D01*
X166595338Y-110887796D01*
X166655950Y-111087607D01*
X166705335Y-111180000D01*
X166655950Y-111272393D01*
X166595338Y-111472204D01*
X166574872Y-111680000D01*
X166595338Y-111887796D01*
X166655950Y-112087607D01*
X166705335Y-112180000D01*
X166655950Y-112272393D01*
X166595338Y-112472204D01*
X166574872Y-112680000D01*
X166595338Y-112887796D01*
X166655950Y-113087607D01*
X166705335Y-113180000D01*
X166655950Y-113272393D01*
X166595338Y-113472204D01*
X166574872Y-113680000D01*
X166595338Y-113887796D01*
X166655950Y-114087607D01*
X166705335Y-114180000D01*
X166655950Y-114272393D01*
X166595338Y-114472204D01*
X166574872Y-114680000D01*
X166595338Y-114887796D01*
X166655950Y-115087607D01*
X166705335Y-115180000D01*
X166655950Y-115272393D01*
X166595338Y-115472204D01*
X166574872Y-115680000D01*
X166595338Y-115887796D01*
X166655950Y-116087607D01*
X166705335Y-116180000D01*
X166655950Y-116272393D01*
X166595338Y-116472204D01*
X166574872Y-116680000D01*
X166595338Y-116887796D01*
X166655950Y-117087607D01*
X166705335Y-117180000D01*
X166655950Y-117272393D01*
X166595338Y-117472204D01*
X166574872Y-117680000D01*
X166595338Y-117887796D01*
X166655950Y-118087607D01*
X166705335Y-118180000D01*
X166655950Y-118272393D01*
X166595338Y-118472204D01*
X166574872Y-118680000D01*
X166595338Y-118887796D01*
X166655950Y-119087607D01*
X166705335Y-119180000D01*
X166655950Y-119272393D01*
X166595338Y-119472204D01*
X166574872Y-119680000D01*
X166595338Y-119887796D01*
X166655950Y-120087607D01*
X166705335Y-120180000D01*
X166655950Y-120272393D01*
X166595338Y-120472204D01*
X166574872Y-120680000D01*
X166595338Y-120887796D01*
X166630065Y-121002276D01*
X166625498Y-121010820D01*
X166589188Y-121130518D01*
X166576928Y-121255000D01*
X166576928Y-122105000D01*
X166589188Y-122229482D01*
X166625498Y-122349180D01*
X166684463Y-122459494D01*
X166763815Y-122556185D01*
X166860506Y-122635537D01*
X166970820Y-122694502D01*
X167090518Y-122730812D01*
X167215000Y-122743072D01*
X168065000Y-122743072D01*
X168189482Y-122730812D01*
X168309180Y-122694502D01*
X168419494Y-122635537D01*
X168511536Y-122560000D01*
X174504063Y-122560000D01*
X174484188Y-122625518D01*
X174471928Y-122750000D01*
X174475000Y-123789250D01*
X174633750Y-123948000D01*
X176133000Y-123948000D01*
X176133000Y-123928000D01*
X176387000Y-123928000D01*
X176387000Y-123948000D01*
X177886250Y-123948000D01*
X178045000Y-123789250D01*
X178047076Y-123086861D01*
X178200046Y-123087994D01*
X178324704Y-123077677D01*
X178444954Y-123043239D01*
X178556174Y-122986003D01*
X178654092Y-122908169D01*
X178734943Y-122812727D01*
X178795621Y-122703346D01*
X178833794Y-122584229D01*
X178845000Y-122481750D01*
X178707725Y-122344475D01*
X178740537Y-122304494D01*
X178799502Y-122194180D01*
X178812753Y-122150497D01*
X178845000Y-122118250D01*
X178837898Y-122053302D01*
X178848072Y-121950000D01*
X178848072Y-121650000D01*
X178838223Y-121550000D01*
X178848072Y-121450000D01*
X178848072Y-121150000D01*
X178838223Y-121050000D01*
X178848072Y-120950000D01*
X178848072Y-120650000D01*
X178838223Y-120550000D01*
X178848072Y-120450000D01*
X178848072Y-120150000D01*
X178838223Y-120050000D01*
X178848072Y-119950000D01*
X178848072Y-119762873D01*
X181276200Y-122191002D01*
X181299999Y-122220001D01*
X181415724Y-122314974D01*
X181547753Y-122385546D01*
X181691014Y-122429003D01*
X181802667Y-122440000D01*
X181802677Y-122440000D01*
X181840000Y-122443676D01*
X181877323Y-122440000D01*
X182135177Y-122440000D01*
X182288247Y-122565622D01*
X182472393Y-122664050D01*
X182672204Y-122724662D01*
X182827934Y-122740000D01*
X182932066Y-122740000D01*
X183087796Y-122724662D01*
X183287607Y-122664050D01*
X183471753Y-122565622D01*
X183633159Y-122433159D01*
X183765622Y-122271753D01*
X183864050Y-122087607D01*
X183924662Y-121887796D01*
X183945128Y-121680000D01*
X183924662Y-121472204D01*
X183864050Y-121272393D01*
X183814665Y-121180000D01*
X183864050Y-121087607D01*
X183924662Y-120887796D01*
X183945128Y-120680000D01*
X183924662Y-120472204D01*
X183864050Y-120272393D01*
X183814665Y-120180000D01*
X183864050Y-120087607D01*
X183924662Y-119887796D01*
X183945128Y-119680000D01*
X183924662Y-119472204D01*
X183864050Y-119272393D01*
X183814665Y-119180000D01*
X183864050Y-119087607D01*
X183924662Y-118887796D01*
X183945128Y-118680000D01*
X183924662Y-118472204D01*
X183864050Y-118272393D01*
X183814665Y-118180000D01*
X183864050Y-118087607D01*
X183924662Y-117887796D01*
X183945128Y-117680000D01*
X183924662Y-117472204D01*
X183864050Y-117272393D01*
X183814665Y-117180000D01*
X183864050Y-117087607D01*
X183924662Y-116887796D01*
X183945128Y-116680000D01*
X183924662Y-116472204D01*
X183864050Y-116272393D01*
X183814665Y-116180000D01*
X183864050Y-116087607D01*
X183924662Y-115887796D01*
X183945128Y-115680000D01*
X183924662Y-115472204D01*
X183864050Y-115272393D01*
X183814665Y-115180000D01*
X183864050Y-115087607D01*
X183924662Y-114887796D01*
X183945128Y-114680000D01*
X183924662Y-114472204D01*
X183864050Y-114272393D01*
X183814665Y-114180000D01*
X183864050Y-114087607D01*
X183924662Y-113887796D01*
X183945128Y-113680000D01*
X183924662Y-113472204D01*
X183864050Y-113272393D01*
X183814665Y-113180000D01*
X183864050Y-113087607D01*
X183924662Y-112887796D01*
X183945128Y-112680000D01*
X183924662Y-112472204D01*
X183864050Y-112272393D01*
X183814665Y-112180000D01*
X183864050Y-112087607D01*
X183924662Y-111887796D01*
X183945128Y-111680000D01*
X183924662Y-111472204D01*
X183864050Y-111272393D01*
X183814665Y-111180000D01*
X183864050Y-111087607D01*
X183924662Y-110887796D01*
X183945128Y-110680000D01*
X183924662Y-110472204D01*
X183864050Y-110272393D01*
X183814665Y-110180000D01*
X183864050Y-110087607D01*
X183924662Y-109887796D01*
X183945128Y-109680000D01*
X183924662Y-109472204D01*
X183864050Y-109272393D01*
X183814665Y-109180000D01*
X183864050Y-109087607D01*
X183924662Y-108887796D01*
X183945128Y-108680000D01*
X183924662Y-108472204D01*
X183864050Y-108272393D01*
X183814665Y-108180000D01*
X183864050Y-108087607D01*
X183924662Y-107887796D01*
X183945128Y-107680000D01*
X183924662Y-107472204D01*
X183889935Y-107357724D01*
X183894502Y-107349180D01*
X183930812Y-107229482D01*
X183943072Y-107105000D01*
X183943072Y-106255000D01*
X183930812Y-106130518D01*
X183894502Y-106010820D01*
X183835537Y-105900506D01*
X183756185Y-105803815D01*
X183659494Y-105724463D01*
X183549180Y-105665498D01*
X183429482Y-105629188D01*
X183305000Y-105616928D01*
X182455000Y-105616928D01*
X182330518Y-105629188D01*
X182210820Y-105665498D01*
X182100506Y-105724463D01*
X182003815Y-105803815D01*
X181924463Y-105900506D01*
X181914043Y-105920000D01*
X180758323Y-105920000D01*
X180721000Y-105916324D01*
X180683677Y-105920000D01*
X180683667Y-105920000D01*
X180572014Y-105930997D01*
X180428753Y-105974454D01*
X180296723Y-106045026D01*
X180213083Y-106113668D01*
X180180999Y-106139999D01*
X180157201Y-106168997D01*
X178844999Y-107481200D01*
X178848072Y-107450000D01*
X178848072Y-107150000D01*
X178838223Y-107050000D01*
X178848072Y-106950000D01*
X178848072Y-106650000D01*
X178837898Y-106546698D01*
X178845000Y-106481750D01*
X178812753Y-106449503D01*
X178799502Y-106405820D01*
X178740537Y-106295506D01*
X178707725Y-106255525D01*
X178845000Y-106118250D01*
X178833794Y-106015771D01*
X178795621Y-105896654D01*
X178734943Y-105787273D01*
X178654092Y-105691831D01*
X178556174Y-105613997D01*
X178444954Y-105556761D01*
X178324704Y-105522323D01*
X178200046Y-105512006D01*
X178047076Y-105513139D01*
X178045000Y-104810750D01*
X177886250Y-104652000D01*
X176387000Y-104652000D01*
X176387000Y-104672000D01*
X176133000Y-104672000D01*
X176133000Y-104652000D01*
X174633750Y-104652000D01*
X174475000Y-104810750D01*
X174471928Y-105850000D01*
X174484188Y-105974482D01*
X174504063Y-106040000D01*
X170337323Y-106040000D01*
X170300000Y-106036324D01*
X170262677Y-106040000D01*
X170262667Y-106040000D01*
X170151014Y-106050997D01*
X170008656Y-106094180D01*
X170007753Y-106094454D01*
X169875723Y-106165026D01*
X169827632Y-106204494D01*
X169759999Y-106259999D01*
X169736201Y-106288997D01*
X169105199Y-106920000D01*
X168620463Y-106920000D01*
X168532257Y-106807000D01*
X168247133Y-106807000D01*
X168231753Y-106794378D01*
X168047607Y-106695950D01*
X167847796Y-106635338D01*
X167692066Y-106620000D01*
X167587934Y-106620000D01*
X167432204Y-106635338D01*
X167232393Y-106695950D01*
X167048247Y-106794378D01*
X167032867Y-106807000D01*
X166747743Y-106807000D01*
X166620460Y-106970062D01*
X166631128Y-107005250D01*
X166706302Y-107178191D01*
X166655950Y-107272393D01*
X166595338Y-107472204D01*
X166574872Y-107680000D01*
X165227000Y-107680000D01*
X165227000Y-106602769D01*
X165236292Y-106389938D01*
X166620460Y-106389938D01*
X166747743Y-106553000D01*
X167513000Y-106553000D01*
X167513000Y-105786379D01*
X167767000Y-105786379D01*
X167767000Y-106553000D01*
X168532257Y-106553000D01*
X168659540Y-106389938D01*
X168648872Y-106354750D01*
X168566034Y-106164178D01*
X168447609Y-105993429D01*
X168298148Y-105849064D01*
X168123394Y-105736632D01*
X167930064Y-105660453D01*
X167767000Y-105786379D01*
X167513000Y-105786379D01*
X167349936Y-105660453D01*
X167156606Y-105736632D01*
X166981852Y-105849064D01*
X166832391Y-105993429D01*
X166713966Y-106164178D01*
X166631128Y-106354750D01*
X166620460Y-106389938D01*
X165236292Y-106389938D01*
X165245664Y-106175308D01*
X165301151Y-105753832D01*
X165393162Y-105338802D01*
X165520991Y-104933380D01*
X165683675Y-104540625D01*
X165879960Y-104163566D01*
X166108371Y-103805032D01*
X166367161Y-103467770D01*
X166612527Y-103200000D01*
X174471928Y-103200000D01*
X174475000Y-104239250D01*
X174633750Y-104398000D01*
X176133000Y-104398000D01*
X176133000Y-102723750D01*
X176387000Y-102723750D01*
X176387000Y-104398000D01*
X177886250Y-104398000D01*
X178045000Y-104239250D01*
X178048072Y-103200000D01*
X178035812Y-103075518D01*
X177999502Y-102955820D01*
X177940537Y-102845506D01*
X177861185Y-102748815D01*
X177764494Y-102669463D01*
X177654180Y-102610498D01*
X177534482Y-102574188D01*
X177410000Y-102561928D01*
X176545750Y-102565000D01*
X176387000Y-102723750D01*
X176133000Y-102723750D01*
X175974250Y-102565000D01*
X175110000Y-102561928D01*
X174985518Y-102574188D01*
X174865820Y-102610498D01*
X174755506Y-102669463D01*
X174658815Y-102748815D01*
X174579463Y-102845506D01*
X174520498Y-102955820D01*
X174484188Y-103075518D01*
X174471928Y-103200000D01*
X166612527Y-103200000D01*
X166654354Y-103154354D01*
X166967770Y-102867161D01*
X167305032Y-102608371D01*
X167663566Y-102379960D01*
X168040625Y-102183675D01*
X168433380Y-102020991D01*
X168838802Y-101893162D01*
X169253832Y-101801151D01*
X169675308Y-101745664D01*
X170102769Y-101727000D01*
X180417231Y-101727000D01*
X180844692Y-101745664D01*
M02*
