M48
; DRILL file {KiCad (5.1.2)-2} date 8/16/2019 1:36:00 PM
; FORMAT={-:-/ absolute / inch / decimal}
; #@! TF.CreationDate,2019-08-16T13:36:00-06:00
; #@! TF.GenerationSoftware,Kicad,Pcbnew,(5.1.2)-2
; #@! TF.FileFunction,Plated,1,2,PTH
FMAT,2
INCH
T1C0.0197
%
G90
G05
T1
X6.6Y-4.2
X6.6Y-4.2394
X6.6Y-4.2787
X6.6Y-4.3181
X6.6Y-4.3575
X6.6Y-4.3969
X6.6Y-4.4362
X6.6Y-4.4756
X6.6Y-4.515
X6.6Y-4.5543
X6.6Y-4.5937
X6.6Y-4.6331
X6.6Y-4.6724
X6.6Y-4.7118
X6.6Y-4.7512
X6.6Y-4.7906
X7.2Y-4.2
X7.2Y-4.2394
X7.2Y-4.2787
X7.2Y-4.3181
X7.2Y-4.3575
X7.2Y-4.3969
X7.2Y-4.4362
X7.2Y-4.4756
X7.2Y-4.515
X7.2Y-4.5543
X7.2Y-4.5937
X7.2Y-4.6331
X7.2Y-4.6724
X7.2Y-4.7118
X7.2Y-4.7512
X7.2Y-4.7906
T0
M30
