G04 #@! TF.GenerationSoftware,KiCad,Pcbnew,(5.1.2)-2*
G04 #@! TF.CreationDate,2019-08-16T13:36:03-06:00*
G04 #@! TF.ProjectId,OLED_Dev,4f4c4544-5f44-4657-962e-6b696361645f,rev?*
G04 #@! TF.SameCoordinates,Original*
G04 #@! TF.FileFunction,Soldermask,Bot*
G04 #@! TF.FilePolarity,Negative*
%FSLAX46Y46*%
G04 Gerber Fmt 4.6, Leading zero omitted, Abs format (unit mm)*
G04 Created by KiCad (PCBNEW (5.1.2)-2) date 2019-08-16 13:36:03*
%MOMM*%
%LPD*%
G04 APERTURE LIST*
%ADD10C,0.100000*%
G04 APERTURE END LIST*
D10*
G36*
X167733312Y-106210887D02*
G01*
X167823039Y-106238106D01*
X167905731Y-106282306D01*
X167978211Y-106341789D01*
X168037694Y-106414269D01*
X168081894Y-106496961D01*
X168109113Y-106586688D01*
X168118303Y-106680000D01*
X168109113Y-106773312D01*
X168081894Y-106863039D01*
X168037694Y-106945731D01*
X167978211Y-107018211D01*
X167905731Y-107077694D01*
X167905726Y-107077697D01*
X167898808Y-107083374D01*
X167881481Y-107100701D01*
X167867867Y-107121075D01*
X167858490Y-107143714D01*
X167853709Y-107167747D01*
X167853709Y-107192251D01*
X167858489Y-107216285D01*
X167867866Y-107238924D01*
X167881480Y-107259298D01*
X167898808Y-107276626D01*
X167905726Y-107282303D01*
X167905731Y-107282306D01*
X167978211Y-107341789D01*
X168037694Y-107414269D01*
X168081894Y-107496961D01*
X168109113Y-107586688D01*
X168118303Y-107680000D01*
X168109113Y-107773312D01*
X168081894Y-107863039D01*
X168037694Y-107945731D01*
X167978211Y-108018211D01*
X167905731Y-108077694D01*
X167905726Y-108077697D01*
X167898808Y-108083374D01*
X167881481Y-108100701D01*
X167867867Y-108121075D01*
X167858490Y-108143714D01*
X167853709Y-108167747D01*
X167853709Y-108192251D01*
X167858489Y-108216285D01*
X167867866Y-108238924D01*
X167881480Y-108259298D01*
X167898808Y-108276626D01*
X167905726Y-108282303D01*
X167905731Y-108282306D01*
X167978211Y-108341789D01*
X168037694Y-108414269D01*
X168081894Y-108496961D01*
X168109113Y-108586688D01*
X168118303Y-108680000D01*
X168109113Y-108773312D01*
X168081894Y-108863039D01*
X168037694Y-108945731D01*
X167978211Y-109018211D01*
X167905731Y-109077694D01*
X167905726Y-109077697D01*
X167898808Y-109083374D01*
X167881481Y-109100701D01*
X167867867Y-109121075D01*
X167858490Y-109143714D01*
X167853709Y-109167747D01*
X167853709Y-109192251D01*
X167858489Y-109216285D01*
X167867866Y-109238924D01*
X167881480Y-109259298D01*
X167898808Y-109276626D01*
X167905726Y-109282303D01*
X167905731Y-109282306D01*
X167978211Y-109341789D01*
X168037694Y-109414269D01*
X168081894Y-109496961D01*
X168109113Y-109586688D01*
X168118303Y-109680000D01*
X168109113Y-109773312D01*
X168081894Y-109863039D01*
X168037694Y-109945731D01*
X167978211Y-110018211D01*
X167905731Y-110077694D01*
X167905726Y-110077697D01*
X167898808Y-110083374D01*
X167881481Y-110100701D01*
X167867867Y-110121075D01*
X167858490Y-110143714D01*
X167853709Y-110167747D01*
X167853709Y-110192251D01*
X167858489Y-110216285D01*
X167867866Y-110238924D01*
X167881480Y-110259298D01*
X167898808Y-110276626D01*
X167905726Y-110282303D01*
X167905731Y-110282306D01*
X167978211Y-110341789D01*
X168037694Y-110414269D01*
X168081894Y-110496961D01*
X168109113Y-110586688D01*
X168118303Y-110680000D01*
X168109113Y-110773312D01*
X168081894Y-110863039D01*
X168037694Y-110945731D01*
X167978211Y-111018211D01*
X167905731Y-111077694D01*
X167905726Y-111077697D01*
X167898808Y-111083374D01*
X167881481Y-111100701D01*
X167867867Y-111121075D01*
X167858490Y-111143714D01*
X167853709Y-111167747D01*
X167853709Y-111192251D01*
X167858489Y-111216285D01*
X167867866Y-111238924D01*
X167881480Y-111259298D01*
X167898808Y-111276626D01*
X167905726Y-111282303D01*
X167905731Y-111282306D01*
X167978211Y-111341789D01*
X168037694Y-111414269D01*
X168081894Y-111496961D01*
X168109113Y-111586688D01*
X168118303Y-111680000D01*
X168109113Y-111773312D01*
X168081894Y-111863039D01*
X168037694Y-111945731D01*
X167978211Y-112018211D01*
X167905731Y-112077694D01*
X167905726Y-112077697D01*
X167898808Y-112083374D01*
X167881481Y-112100701D01*
X167867867Y-112121075D01*
X167858490Y-112143714D01*
X167853709Y-112167747D01*
X167853709Y-112192251D01*
X167858489Y-112216285D01*
X167867866Y-112238924D01*
X167881480Y-112259298D01*
X167898808Y-112276626D01*
X167905726Y-112282303D01*
X167905731Y-112282306D01*
X167978211Y-112341789D01*
X168037694Y-112414269D01*
X168081894Y-112496961D01*
X168109113Y-112586688D01*
X168118303Y-112680000D01*
X168109113Y-112773312D01*
X168081894Y-112863039D01*
X168037694Y-112945731D01*
X167978211Y-113018211D01*
X167905731Y-113077694D01*
X167905726Y-113077697D01*
X167898808Y-113083374D01*
X167881481Y-113100701D01*
X167867867Y-113121075D01*
X167858490Y-113143714D01*
X167853709Y-113167747D01*
X167853709Y-113192251D01*
X167858489Y-113216285D01*
X167867866Y-113238924D01*
X167881480Y-113259298D01*
X167898808Y-113276626D01*
X167905726Y-113282303D01*
X167905731Y-113282306D01*
X167978211Y-113341789D01*
X168037694Y-113414269D01*
X168081894Y-113496961D01*
X168109113Y-113586688D01*
X168118303Y-113680000D01*
X168109113Y-113773312D01*
X168081894Y-113863039D01*
X168037694Y-113945731D01*
X167978211Y-114018211D01*
X167905731Y-114077694D01*
X167905726Y-114077697D01*
X167898808Y-114083374D01*
X167881481Y-114100701D01*
X167867867Y-114121075D01*
X167858490Y-114143714D01*
X167853709Y-114167747D01*
X167853709Y-114192251D01*
X167858489Y-114216285D01*
X167867866Y-114238924D01*
X167881480Y-114259298D01*
X167898808Y-114276626D01*
X167905726Y-114282303D01*
X167905731Y-114282306D01*
X167978211Y-114341789D01*
X168037694Y-114414269D01*
X168081894Y-114496961D01*
X168109113Y-114586688D01*
X168118303Y-114680000D01*
X168109113Y-114773312D01*
X168081894Y-114863039D01*
X168037694Y-114945731D01*
X167978211Y-115018211D01*
X167905731Y-115077694D01*
X167905726Y-115077697D01*
X167898808Y-115083374D01*
X167881481Y-115100701D01*
X167867867Y-115121075D01*
X167858490Y-115143714D01*
X167853709Y-115167747D01*
X167853709Y-115192251D01*
X167858489Y-115216285D01*
X167867866Y-115238924D01*
X167881480Y-115259298D01*
X167898808Y-115276626D01*
X167905726Y-115282303D01*
X167905731Y-115282306D01*
X167978211Y-115341789D01*
X168037694Y-115414269D01*
X168081894Y-115496961D01*
X168109113Y-115586688D01*
X168118303Y-115680000D01*
X168109113Y-115773312D01*
X168081894Y-115863039D01*
X168037694Y-115945731D01*
X167978211Y-116018211D01*
X167905731Y-116077694D01*
X167905726Y-116077697D01*
X167898808Y-116083374D01*
X167881481Y-116100701D01*
X167867867Y-116121075D01*
X167858490Y-116143714D01*
X167853709Y-116167747D01*
X167853709Y-116192251D01*
X167858489Y-116216285D01*
X167867866Y-116238924D01*
X167881480Y-116259298D01*
X167898808Y-116276626D01*
X167905726Y-116282303D01*
X167905731Y-116282306D01*
X167978211Y-116341789D01*
X168037694Y-116414269D01*
X168081894Y-116496961D01*
X168109113Y-116586688D01*
X168118303Y-116680000D01*
X168109113Y-116773312D01*
X168081894Y-116863039D01*
X168037694Y-116945731D01*
X167978211Y-117018211D01*
X167905731Y-117077694D01*
X167905726Y-117077697D01*
X167898808Y-117083374D01*
X167881481Y-117100701D01*
X167867867Y-117121075D01*
X167858490Y-117143714D01*
X167853709Y-117167747D01*
X167853709Y-117192251D01*
X167858489Y-117216285D01*
X167867866Y-117238924D01*
X167881480Y-117259298D01*
X167898808Y-117276626D01*
X167905726Y-117282303D01*
X167905731Y-117282306D01*
X167978211Y-117341789D01*
X168037694Y-117414269D01*
X168081894Y-117496961D01*
X168109113Y-117586688D01*
X168118303Y-117680000D01*
X168109113Y-117773312D01*
X168081894Y-117863039D01*
X168037694Y-117945731D01*
X167978211Y-118018211D01*
X167905731Y-118077694D01*
X167905726Y-118077697D01*
X167898808Y-118083374D01*
X167881481Y-118100701D01*
X167867867Y-118121075D01*
X167858490Y-118143714D01*
X167853709Y-118167747D01*
X167853709Y-118192251D01*
X167858489Y-118216285D01*
X167867866Y-118238924D01*
X167881480Y-118259298D01*
X167898808Y-118276626D01*
X167905726Y-118282303D01*
X167905731Y-118282306D01*
X167978211Y-118341789D01*
X168037694Y-118414269D01*
X168081894Y-118496961D01*
X168109113Y-118586688D01*
X168118303Y-118680000D01*
X168109113Y-118773312D01*
X168081894Y-118863039D01*
X168037694Y-118945731D01*
X167978211Y-119018211D01*
X167905731Y-119077694D01*
X167905726Y-119077697D01*
X167898808Y-119083374D01*
X167881481Y-119100701D01*
X167867867Y-119121075D01*
X167858490Y-119143714D01*
X167853709Y-119167747D01*
X167853709Y-119192251D01*
X167858489Y-119216285D01*
X167867866Y-119238924D01*
X167881480Y-119259298D01*
X167898808Y-119276626D01*
X167905726Y-119282303D01*
X167905731Y-119282306D01*
X167978211Y-119341789D01*
X168037694Y-119414269D01*
X168081894Y-119496961D01*
X168109113Y-119586688D01*
X168118303Y-119680000D01*
X168109113Y-119773312D01*
X168081894Y-119863039D01*
X168037694Y-119945731D01*
X167978211Y-120018211D01*
X167905731Y-120077694D01*
X167905726Y-120077697D01*
X167898808Y-120083374D01*
X167881481Y-120100701D01*
X167867867Y-120121075D01*
X167858490Y-120143714D01*
X167853709Y-120167747D01*
X167853709Y-120192251D01*
X167858489Y-120216285D01*
X167867866Y-120238924D01*
X167881480Y-120259298D01*
X167898808Y-120276626D01*
X167905726Y-120282303D01*
X167905731Y-120282306D01*
X167978211Y-120341789D01*
X168037694Y-120414269D01*
X168081894Y-120496961D01*
X168109113Y-120586688D01*
X168118303Y-120680000D01*
X168109113Y-120773312D01*
X168081894Y-120863039D01*
X168037694Y-120945731D01*
X167993394Y-120999711D01*
X167979786Y-121020077D01*
X167970408Y-121042716D01*
X167965628Y-121066749D01*
X167965628Y-121091253D01*
X167970408Y-121115286D01*
X167979786Y-121137925D01*
X167993400Y-121158300D01*
X168010727Y-121175627D01*
X168031101Y-121189240D01*
X168053740Y-121198618D01*
X168090025Y-121204000D01*
X168116000Y-121204000D01*
X168116000Y-122156000D01*
X167164000Y-122156000D01*
X167164000Y-121204000D01*
X167189975Y-121204000D01*
X167214361Y-121201598D01*
X167237810Y-121194485D01*
X167259421Y-121182934D01*
X167278363Y-121167389D01*
X167293908Y-121148447D01*
X167305459Y-121126836D01*
X167312572Y-121103387D01*
X167314974Y-121079001D01*
X167312572Y-121054615D01*
X167305459Y-121031166D01*
X167286604Y-120999708D01*
X167242306Y-120945731D01*
X167198106Y-120863039D01*
X167170887Y-120773312D01*
X167161697Y-120680000D01*
X167170887Y-120586688D01*
X167198106Y-120496961D01*
X167242306Y-120414269D01*
X167301789Y-120341789D01*
X167374269Y-120282306D01*
X167374274Y-120282303D01*
X167381192Y-120276626D01*
X167398519Y-120259299D01*
X167412133Y-120238925D01*
X167421510Y-120216286D01*
X167426291Y-120192253D01*
X167426291Y-120167749D01*
X167421511Y-120143715D01*
X167412134Y-120121076D01*
X167398520Y-120100702D01*
X167381192Y-120083374D01*
X167374274Y-120077697D01*
X167374269Y-120077694D01*
X167301789Y-120018211D01*
X167242306Y-119945731D01*
X167198106Y-119863039D01*
X167170887Y-119773312D01*
X167161697Y-119680000D01*
X167170887Y-119586688D01*
X167198106Y-119496961D01*
X167242306Y-119414269D01*
X167301789Y-119341789D01*
X167374269Y-119282306D01*
X167374274Y-119282303D01*
X167381192Y-119276626D01*
X167398519Y-119259299D01*
X167412133Y-119238925D01*
X167421510Y-119216286D01*
X167426291Y-119192253D01*
X167426291Y-119167749D01*
X167421511Y-119143715D01*
X167412134Y-119121076D01*
X167398520Y-119100702D01*
X167381192Y-119083374D01*
X167374274Y-119077697D01*
X167374269Y-119077694D01*
X167301789Y-119018211D01*
X167242306Y-118945731D01*
X167198106Y-118863039D01*
X167170887Y-118773312D01*
X167161697Y-118680000D01*
X167170887Y-118586688D01*
X167198106Y-118496961D01*
X167242306Y-118414269D01*
X167301789Y-118341789D01*
X167374269Y-118282306D01*
X167374274Y-118282303D01*
X167381192Y-118276626D01*
X167398519Y-118259299D01*
X167412133Y-118238925D01*
X167421510Y-118216286D01*
X167426291Y-118192253D01*
X167426291Y-118167749D01*
X167421511Y-118143715D01*
X167412134Y-118121076D01*
X167398520Y-118100702D01*
X167381192Y-118083374D01*
X167374274Y-118077697D01*
X167374269Y-118077694D01*
X167301789Y-118018211D01*
X167242306Y-117945731D01*
X167198106Y-117863039D01*
X167170887Y-117773312D01*
X167161697Y-117680000D01*
X167170887Y-117586688D01*
X167198106Y-117496961D01*
X167242306Y-117414269D01*
X167301789Y-117341789D01*
X167374269Y-117282306D01*
X167374274Y-117282303D01*
X167381192Y-117276626D01*
X167398519Y-117259299D01*
X167412133Y-117238925D01*
X167421510Y-117216286D01*
X167426291Y-117192253D01*
X167426291Y-117167749D01*
X167421511Y-117143715D01*
X167412134Y-117121076D01*
X167398520Y-117100702D01*
X167381192Y-117083374D01*
X167374274Y-117077697D01*
X167374269Y-117077694D01*
X167301789Y-117018211D01*
X167242306Y-116945731D01*
X167198106Y-116863039D01*
X167170887Y-116773312D01*
X167161697Y-116680000D01*
X167170887Y-116586688D01*
X167198106Y-116496961D01*
X167242306Y-116414269D01*
X167301789Y-116341789D01*
X167374269Y-116282306D01*
X167374274Y-116282303D01*
X167381192Y-116276626D01*
X167398519Y-116259299D01*
X167412133Y-116238925D01*
X167421510Y-116216286D01*
X167426291Y-116192253D01*
X167426291Y-116167749D01*
X167421511Y-116143715D01*
X167412134Y-116121076D01*
X167398520Y-116100702D01*
X167381192Y-116083374D01*
X167374274Y-116077697D01*
X167374269Y-116077694D01*
X167301789Y-116018211D01*
X167242306Y-115945731D01*
X167198106Y-115863039D01*
X167170887Y-115773312D01*
X167161697Y-115680000D01*
X167170887Y-115586688D01*
X167198106Y-115496961D01*
X167242306Y-115414269D01*
X167301789Y-115341789D01*
X167374269Y-115282306D01*
X167374274Y-115282303D01*
X167381192Y-115276626D01*
X167398519Y-115259299D01*
X167412133Y-115238925D01*
X167421510Y-115216286D01*
X167426291Y-115192253D01*
X167426291Y-115167749D01*
X167421511Y-115143715D01*
X167412134Y-115121076D01*
X167398520Y-115100702D01*
X167381192Y-115083374D01*
X167374274Y-115077697D01*
X167374269Y-115077694D01*
X167301789Y-115018211D01*
X167242306Y-114945731D01*
X167198106Y-114863039D01*
X167170887Y-114773312D01*
X167161697Y-114680000D01*
X167170887Y-114586688D01*
X167198106Y-114496961D01*
X167242306Y-114414269D01*
X167301789Y-114341789D01*
X167374269Y-114282306D01*
X167374274Y-114282303D01*
X167381192Y-114276626D01*
X167398519Y-114259299D01*
X167412133Y-114238925D01*
X167421510Y-114216286D01*
X167426291Y-114192253D01*
X167426291Y-114167749D01*
X167421511Y-114143715D01*
X167412134Y-114121076D01*
X167398520Y-114100702D01*
X167381192Y-114083374D01*
X167374274Y-114077697D01*
X167374269Y-114077694D01*
X167301789Y-114018211D01*
X167242306Y-113945731D01*
X167198106Y-113863039D01*
X167170887Y-113773312D01*
X167161697Y-113680000D01*
X167170887Y-113586688D01*
X167198106Y-113496961D01*
X167242306Y-113414269D01*
X167301789Y-113341789D01*
X167374269Y-113282306D01*
X167374274Y-113282303D01*
X167381192Y-113276626D01*
X167398519Y-113259299D01*
X167412133Y-113238925D01*
X167421510Y-113216286D01*
X167426291Y-113192253D01*
X167426291Y-113167749D01*
X167421511Y-113143715D01*
X167412134Y-113121076D01*
X167398520Y-113100702D01*
X167381192Y-113083374D01*
X167374274Y-113077697D01*
X167374269Y-113077694D01*
X167301789Y-113018211D01*
X167242306Y-112945731D01*
X167198106Y-112863039D01*
X167170887Y-112773312D01*
X167161697Y-112680000D01*
X167170887Y-112586688D01*
X167198106Y-112496961D01*
X167242306Y-112414269D01*
X167301789Y-112341789D01*
X167374269Y-112282306D01*
X167374274Y-112282303D01*
X167381192Y-112276626D01*
X167398519Y-112259299D01*
X167412133Y-112238925D01*
X167421510Y-112216286D01*
X167426291Y-112192253D01*
X167426291Y-112167749D01*
X167421511Y-112143715D01*
X167412134Y-112121076D01*
X167398520Y-112100702D01*
X167381192Y-112083374D01*
X167374274Y-112077697D01*
X167374269Y-112077694D01*
X167301789Y-112018211D01*
X167242306Y-111945731D01*
X167198106Y-111863039D01*
X167170887Y-111773312D01*
X167161697Y-111680000D01*
X167170887Y-111586688D01*
X167198106Y-111496961D01*
X167242306Y-111414269D01*
X167301789Y-111341789D01*
X167374269Y-111282306D01*
X167374274Y-111282303D01*
X167381192Y-111276626D01*
X167398519Y-111259299D01*
X167412133Y-111238925D01*
X167421510Y-111216286D01*
X167426291Y-111192253D01*
X167426291Y-111167749D01*
X167421511Y-111143715D01*
X167412134Y-111121076D01*
X167398520Y-111100702D01*
X167381192Y-111083374D01*
X167374274Y-111077697D01*
X167374269Y-111077694D01*
X167301789Y-111018211D01*
X167242306Y-110945731D01*
X167198106Y-110863039D01*
X167170887Y-110773312D01*
X167161697Y-110680000D01*
X167170887Y-110586688D01*
X167198106Y-110496961D01*
X167242306Y-110414269D01*
X167301789Y-110341789D01*
X167374269Y-110282306D01*
X167374274Y-110282303D01*
X167381192Y-110276626D01*
X167398519Y-110259299D01*
X167412133Y-110238925D01*
X167421510Y-110216286D01*
X167426291Y-110192253D01*
X167426291Y-110167749D01*
X167421511Y-110143715D01*
X167412134Y-110121076D01*
X167398520Y-110100702D01*
X167381192Y-110083374D01*
X167374274Y-110077697D01*
X167374269Y-110077694D01*
X167301789Y-110018211D01*
X167242306Y-109945731D01*
X167198106Y-109863039D01*
X167170887Y-109773312D01*
X167161697Y-109680000D01*
X167170887Y-109586688D01*
X167198106Y-109496961D01*
X167242306Y-109414269D01*
X167301789Y-109341789D01*
X167374269Y-109282306D01*
X167374274Y-109282303D01*
X167381192Y-109276626D01*
X167398519Y-109259299D01*
X167412133Y-109238925D01*
X167421510Y-109216286D01*
X167426291Y-109192253D01*
X167426291Y-109167749D01*
X167421511Y-109143715D01*
X167412134Y-109121076D01*
X167398520Y-109100702D01*
X167381192Y-109083374D01*
X167374274Y-109077697D01*
X167374269Y-109077694D01*
X167301789Y-109018211D01*
X167242306Y-108945731D01*
X167198106Y-108863039D01*
X167170887Y-108773312D01*
X167161697Y-108680000D01*
X167170887Y-108586688D01*
X167198106Y-108496961D01*
X167242306Y-108414269D01*
X167301789Y-108341789D01*
X167374269Y-108282306D01*
X167374274Y-108282303D01*
X167381192Y-108276626D01*
X167398519Y-108259299D01*
X167412133Y-108238925D01*
X167421510Y-108216286D01*
X167426291Y-108192253D01*
X167426291Y-108167749D01*
X167421511Y-108143715D01*
X167412134Y-108121076D01*
X167398520Y-108100702D01*
X167381192Y-108083374D01*
X167374274Y-108077697D01*
X167374269Y-108077694D01*
X167301789Y-108018211D01*
X167242306Y-107945731D01*
X167198106Y-107863039D01*
X167170887Y-107773312D01*
X167161697Y-107680000D01*
X167170887Y-107586688D01*
X167198106Y-107496961D01*
X167242306Y-107414269D01*
X167301789Y-107341789D01*
X167374269Y-107282306D01*
X167374274Y-107282303D01*
X167381192Y-107276626D01*
X167398519Y-107259299D01*
X167412133Y-107238925D01*
X167421510Y-107216286D01*
X167426291Y-107192253D01*
X167426291Y-107167749D01*
X167421511Y-107143715D01*
X167412134Y-107121076D01*
X167398520Y-107100702D01*
X167381192Y-107083374D01*
X167374274Y-107077697D01*
X167374269Y-107077694D01*
X167301789Y-107018211D01*
X167242306Y-106945731D01*
X167198106Y-106863039D01*
X167170887Y-106773312D01*
X167161697Y-106680000D01*
X167170887Y-106586688D01*
X167198106Y-106496961D01*
X167242306Y-106414269D01*
X167301789Y-106341789D01*
X167374269Y-106282306D01*
X167456961Y-106238106D01*
X167546688Y-106210887D01*
X167616616Y-106204000D01*
X167663384Y-106204000D01*
X167733312Y-106210887D01*
X167733312Y-106210887D01*
G37*
G36*
X183356000Y-107156000D02*
G01*
X183330025Y-107156000D01*
X183305639Y-107158402D01*
X183282190Y-107165515D01*
X183260579Y-107177066D01*
X183241637Y-107192611D01*
X183226092Y-107211553D01*
X183214541Y-107233164D01*
X183207428Y-107256613D01*
X183205026Y-107280999D01*
X183207428Y-107305385D01*
X183214541Y-107328834D01*
X183233396Y-107360292D01*
X183277694Y-107414269D01*
X183321894Y-107496961D01*
X183349113Y-107586688D01*
X183358303Y-107680000D01*
X183349113Y-107773312D01*
X183321894Y-107863039D01*
X183277694Y-107945731D01*
X183218211Y-108018211D01*
X183145731Y-108077694D01*
X183145726Y-108077697D01*
X183138808Y-108083374D01*
X183121481Y-108100701D01*
X183107867Y-108121075D01*
X183098490Y-108143714D01*
X183093709Y-108167747D01*
X183093709Y-108192251D01*
X183098489Y-108216285D01*
X183107866Y-108238924D01*
X183121480Y-108259298D01*
X183138808Y-108276626D01*
X183145726Y-108282303D01*
X183145731Y-108282306D01*
X183218211Y-108341789D01*
X183277694Y-108414269D01*
X183321894Y-108496961D01*
X183349113Y-108586688D01*
X183358303Y-108680000D01*
X183349113Y-108773312D01*
X183321894Y-108863039D01*
X183277694Y-108945731D01*
X183218211Y-109018211D01*
X183145731Y-109077694D01*
X183145726Y-109077697D01*
X183138808Y-109083374D01*
X183121481Y-109100701D01*
X183107867Y-109121075D01*
X183098490Y-109143714D01*
X183093709Y-109167747D01*
X183093709Y-109192251D01*
X183098489Y-109216285D01*
X183107866Y-109238924D01*
X183121480Y-109259298D01*
X183138808Y-109276626D01*
X183145726Y-109282303D01*
X183145731Y-109282306D01*
X183218211Y-109341789D01*
X183277694Y-109414269D01*
X183321894Y-109496961D01*
X183349113Y-109586688D01*
X183358303Y-109680000D01*
X183349113Y-109773312D01*
X183321894Y-109863039D01*
X183277694Y-109945731D01*
X183218211Y-110018211D01*
X183145731Y-110077694D01*
X183145726Y-110077697D01*
X183138808Y-110083374D01*
X183121481Y-110100701D01*
X183107867Y-110121075D01*
X183098490Y-110143714D01*
X183093709Y-110167747D01*
X183093709Y-110192251D01*
X183098489Y-110216285D01*
X183107866Y-110238924D01*
X183121480Y-110259298D01*
X183138808Y-110276626D01*
X183145726Y-110282303D01*
X183145731Y-110282306D01*
X183218211Y-110341789D01*
X183277694Y-110414269D01*
X183321894Y-110496961D01*
X183349113Y-110586688D01*
X183358303Y-110680000D01*
X183349113Y-110773312D01*
X183321894Y-110863039D01*
X183277694Y-110945731D01*
X183218211Y-111018211D01*
X183145731Y-111077694D01*
X183145726Y-111077697D01*
X183138808Y-111083374D01*
X183121481Y-111100701D01*
X183107867Y-111121075D01*
X183098490Y-111143714D01*
X183093709Y-111167747D01*
X183093709Y-111192251D01*
X183098489Y-111216285D01*
X183107866Y-111238924D01*
X183121480Y-111259298D01*
X183138808Y-111276626D01*
X183145726Y-111282303D01*
X183145731Y-111282306D01*
X183218211Y-111341789D01*
X183277694Y-111414269D01*
X183321894Y-111496961D01*
X183349113Y-111586688D01*
X183358303Y-111680000D01*
X183349113Y-111773312D01*
X183321894Y-111863039D01*
X183277694Y-111945731D01*
X183218211Y-112018211D01*
X183145731Y-112077694D01*
X183145726Y-112077697D01*
X183138808Y-112083374D01*
X183121481Y-112100701D01*
X183107867Y-112121075D01*
X183098490Y-112143714D01*
X183093709Y-112167747D01*
X183093709Y-112192251D01*
X183098489Y-112216285D01*
X183107866Y-112238924D01*
X183121480Y-112259298D01*
X183138808Y-112276626D01*
X183145726Y-112282303D01*
X183145731Y-112282306D01*
X183218211Y-112341789D01*
X183277694Y-112414269D01*
X183321894Y-112496961D01*
X183349113Y-112586688D01*
X183358303Y-112680000D01*
X183349113Y-112773312D01*
X183321894Y-112863039D01*
X183277694Y-112945731D01*
X183218211Y-113018211D01*
X183145731Y-113077694D01*
X183145726Y-113077697D01*
X183138808Y-113083374D01*
X183121481Y-113100701D01*
X183107867Y-113121075D01*
X183098490Y-113143714D01*
X183093709Y-113167747D01*
X183093709Y-113192251D01*
X183098489Y-113216285D01*
X183107866Y-113238924D01*
X183121480Y-113259298D01*
X183138808Y-113276626D01*
X183145726Y-113282303D01*
X183145731Y-113282306D01*
X183218211Y-113341789D01*
X183277694Y-113414269D01*
X183321894Y-113496961D01*
X183349113Y-113586688D01*
X183358303Y-113680000D01*
X183349113Y-113773312D01*
X183321894Y-113863039D01*
X183277694Y-113945731D01*
X183218211Y-114018211D01*
X183145731Y-114077694D01*
X183145726Y-114077697D01*
X183138808Y-114083374D01*
X183121481Y-114100701D01*
X183107867Y-114121075D01*
X183098490Y-114143714D01*
X183093709Y-114167747D01*
X183093709Y-114192251D01*
X183098489Y-114216285D01*
X183107866Y-114238924D01*
X183121480Y-114259298D01*
X183138808Y-114276626D01*
X183145726Y-114282303D01*
X183145731Y-114282306D01*
X183218211Y-114341789D01*
X183277694Y-114414269D01*
X183321894Y-114496961D01*
X183349113Y-114586688D01*
X183358303Y-114680000D01*
X183349113Y-114773312D01*
X183321894Y-114863039D01*
X183277694Y-114945731D01*
X183218211Y-115018211D01*
X183145731Y-115077694D01*
X183145726Y-115077697D01*
X183138808Y-115083374D01*
X183121481Y-115100701D01*
X183107867Y-115121075D01*
X183098490Y-115143714D01*
X183093709Y-115167747D01*
X183093709Y-115192251D01*
X183098489Y-115216285D01*
X183107866Y-115238924D01*
X183121480Y-115259298D01*
X183138808Y-115276626D01*
X183145726Y-115282303D01*
X183145731Y-115282306D01*
X183218211Y-115341789D01*
X183277694Y-115414269D01*
X183321894Y-115496961D01*
X183349113Y-115586688D01*
X183358303Y-115680000D01*
X183349113Y-115773312D01*
X183321894Y-115863039D01*
X183277694Y-115945731D01*
X183218211Y-116018211D01*
X183145731Y-116077694D01*
X183145726Y-116077697D01*
X183138808Y-116083374D01*
X183121481Y-116100701D01*
X183107867Y-116121075D01*
X183098490Y-116143714D01*
X183093709Y-116167747D01*
X183093709Y-116192251D01*
X183098489Y-116216285D01*
X183107866Y-116238924D01*
X183121480Y-116259298D01*
X183138808Y-116276626D01*
X183145726Y-116282303D01*
X183145731Y-116282306D01*
X183218211Y-116341789D01*
X183277694Y-116414269D01*
X183321894Y-116496961D01*
X183349113Y-116586688D01*
X183358303Y-116680000D01*
X183349113Y-116773312D01*
X183321894Y-116863039D01*
X183277694Y-116945731D01*
X183218211Y-117018211D01*
X183145731Y-117077694D01*
X183145726Y-117077697D01*
X183138808Y-117083374D01*
X183121481Y-117100701D01*
X183107867Y-117121075D01*
X183098490Y-117143714D01*
X183093709Y-117167747D01*
X183093709Y-117192251D01*
X183098489Y-117216285D01*
X183107866Y-117238924D01*
X183121480Y-117259298D01*
X183138808Y-117276626D01*
X183145726Y-117282303D01*
X183145731Y-117282306D01*
X183218211Y-117341789D01*
X183277694Y-117414269D01*
X183321894Y-117496961D01*
X183349113Y-117586688D01*
X183358303Y-117680000D01*
X183349113Y-117773312D01*
X183321894Y-117863039D01*
X183277694Y-117945731D01*
X183218211Y-118018211D01*
X183145731Y-118077694D01*
X183145726Y-118077697D01*
X183138808Y-118083374D01*
X183121481Y-118100701D01*
X183107867Y-118121075D01*
X183098490Y-118143714D01*
X183093709Y-118167747D01*
X183093709Y-118192251D01*
X183098489Y-118216285D01*
X183107866Y-118238924D01*
X183121480Y-118259298D01*
X183138808Y-118276626D01*
X183145726Y-118282303D01*
X183145731Y-118282306D01*
X183218211Y-118341789D01*
X183277694Y-118414269D01*
X183321894Y-118496961D01*
X183349113Y-118586688D01*
X183358303Y-118680000D01*
X183349113Y-118773312D01*
X183321894Y-118863039D01*
X183277694Y-118945731D01*
X183218211Y-119018211D01*
X183145731Y-119077694D01*
X183145726Y-119077697D01*
X183138808Y-119083374D01*
X183121481Y-119100701D01*
X183107867Y-119121075D01*
X183098490Y-119143714D01*
X183093709Y-119167747D01*
X183093709Y-119192251D01*
X183098489Y-119216285D01*
X183107866Y-119238924D01*
X183121480Y-119259298D01*
X183138808Y-119276626D01*
X183145726Y-119282303D01*
X183145731Y-119282306D01*
X183218211Y-119341789D01*
X183277694Y-119414269D01*
X183321894Y-119496961D01*
X183349113Y-119586688D01*
X183358303Y-119680000D01*
X183349113Y-119773312D01*
X183321894Y-119863039D01*
X183277694Y-119945731D01*
X183218211Y-120018211D01*
X183145731Y-120077694D01*
X183145726Y-120077697D01*
X183138808Y-120083374D01*
X183121481Y-120100701D01*
X183107867Y-120121075D01*
X183098490Y-120143714D01*
X183093709Y-120167747D01*
X183093709Y-120192251D01*
X183098489Y-120216285D01*
X183107866Y-120238924D01*
X183121480Y-120259298D01*
X183138808Y-120276626D01*
X183145726Y-120282303D01*
X183145731Y-120282306D01*
X183218211Y-120341789D01*
X183277694Y-120414269D01*
X183321894Y-120496961D01*
X183349113Y-120586688D01*
X183358303Y-120680000D01*
X183349113Y-120773312D01*
X183321894Y-120863039D01*
X183277694Y-120945731D01*
X183218211Y-121018211D01*
X183145731Y-121077694D01*
X183145726Y-121077697D01*
X183138808Y-121083374D01*
X183121481Y-121100701D01*
X183107867Y-121121075D01*
X183098490Y-121143714D01*
X183093709Y-121167747D01*
X183093709Y-121192251D01*
X183098489Y-121216285D01*
X183107866Y-121238924D01*
X183121480Y-121259298D01*
X183138808Y-121276626D01*
X183145726Y-121282303D01*
X183145731Y-121282306D01*
X183218211Y-121341789D01*
X183277694Y-121414269D01*
X183321894Y-121496961D01*
X183349113Y-121586688D01*
X183358303Y-121680000D01*
X183349113Y-121773312D01*
X183321894Y-121863039D01*
X183277694Y-121945731D01*
X183218211Y-122018211D01*
X183145731Y-122077694D01*
X183063039Y-122121894D01*
X182973312Y-122149113D01*
X182903384Y-122156000D01*
X182856616Y-122156000D01*
X182786688Y-122149113D01*
X182696961Y-122121894D01*
X182614269Y-122077694D01*
X182541789Y-122018211D01*
X182482306Y-121945731D01*
X182438106Y-121863039D01*
X182410887Y-121773312D01*
X182401697Y-121680000D01*
X182410887Y-121586688D01*
X182438106Y-121496961D01*
X182482306Y-121414269D01*
X182541789Y-121341789D01*
X182614269Y-121282306D01*
X182614274Y-121282303D01*
X182621192Y-121276626D01*
X182638519Y-121259299D01*
X182652133Y-121238925D01*
X182661510Y-121216286D01*
X182666291Y-121192253D01*
X182666291Y-121167749D01*
X182661511Y-121143715D01*
X182652134Y-121121076D01*
X182638520Y-121100702D01*
X182621192Y-121083374D01*
X182614274Y-121077697D01*
X182614269Y-121077694D01*
X182541789Y-121018211D01*
X182482306Y-120945731D01*
X182438106Y-120863039D01*
X182410887Y-120773312D01*
X182401697Y-120680000D01*
X182410887Y-120586688D01*
X182438106Y-120496961D01*
X182482306Y-120414269D01*
X182541789Y-120341789D01*
X182614269Y-120282306D01*
X182614274Y-120282303D01*
X182621192Y-120276626D01*
X182638519Y-120259299D01*
X182652133Y-120238925D01*
X182661510Y-120216286D01*
X182666291Y-120192253D01*
X182666291Y-120167749D01*
X182661511Y-120143715D01*
X182652134Y-120121076D01*
X182638520Y-120100702D01*
X182621192Y-120083374D01*
X182614274Y-120077697D01*
X182614269Y-120077694D01*
X182541789Y-120018211D01*
X182482306Y-119945731D01*
X182438106Y-119863039D01*
X182410887Y-119773312D01*
X182401697Y-119680000D01*
X182410887Y-119586688D01*
X182438106Y-119496961D01*
X182482306Y-119414269D01*
X182541789Y-119341789D01*
X182614269Y-119282306D01*
X182614274Y-119282303D01*
X182621192Y-119276626D01*
X182638519Y-119259299D01*
X182652133Y-119238925D01*
X182661510Y-119216286D01*
X182666291Y-119192253D01*
X182666291Y-119167749D01*
X182661511Y-119143715D01*
X182652134Y-119121076D01*
X182638520Y-119100702D01*
X182621192Y-119083374D01*
X182614274Y-119077697D01*
X182614269Y-119077694D01*
X182541789Y-119018211D01*
X182482306Y-118945731D01*
X182438106Y-118863039D01*
X182410887Y-118773312D01*
X182401697Y-118680000D01*
X182410887Y-118586688D01*
X182438106Y-118496961D01*
X182482306Y-118414269D01*
X182541789Y-118341789D01*
X182614269Y-118282306D01*
X182614274Y-118282303D01*
X182621192Y-118276626D01*
X182638519Y-118259299D01*
X182652133Y-118238925D01*
X182661510Y-118216286D01*
X182666291Y-118192253D01*
X182666291Y-118167749D01*
X182661511Y-118143715D01*
X182652134Y-118121076D01*
X182638520Y-118100702D01*
X182621192Y-118083374D01*
X182614274Y-118077697D01*
X182614269Y-118077694D01*
X182541789Y-118018211D01*
X182482306Y-117945731D01*
X182438106Y-117863039D01*
X182410887Y-117773312D01*
X182401697Y-117680000D01*
X182410887Y-117586688D01*
X182438106Y-117496961D01*
X182482306Y-117414269D01*
X182541789Y-117341789D01*
X182614269Y-117282306D01*
X182614274Y-117282303D01*
X182621192Y-117276626D01*
X182638519Y-117259299D01*
X182652133Y-117238925D01*
X182661510Y-117216286D01*
X182666291Y-117192253D01*
X182666291Y-117167749D01*
X182661511Y-117143715D01*
X182652134Y-117121076D01*
X182638520Y-117100702D01*
X182621192Y-117083374D01*
X182614274Y-117077697D01*
X182614269Y-117077694D01*
X182541789Y-117018211D01*
X182482306Y-116945731D01*
X182438106Y-116863039D01*
X182410887Y-116773312D01*
X182401697Y-116680000D01*
X182410887Y-116586688D01*
X182438106Y-116496961D01*
X182482306Y-116414269D01*
X182541789Y-116341789D01*
X182614269Y-116282306D01*
X182614274Y-116282303D01*
X182621192Y-116276626D01*
X182638519Y-116259299D01*
X182652133Y-116238925D01*
X182661510Y-116216286D01*
X182666291Y-116192253D01*
X182666291Y-116167749D01*
X182661511Y-116143715D01*
X182652134Y-116121076D01*
X182638520Y-116100702D01*
X182621192Y-116083374D01*
X182614274Y-116077697D01*
X182614269Y-116077694D01*
X182541789Y-116018211D01*
X182482306Y-115945731D01*
X182438106Y-115863039D01*
X182410887Y-115773312D01*
X182401697Y-115680000D01*
X182410887Y-115586688D01*
X182438106Y-115496961D01*
X182482306Y-115414269D01*
X182541789Y-115341789D01*
X182614269Y-115282306D01*
X182614274Y-115282303D01*
X182621192Y-115276626D01*
X182638519Y-115259299D01*
X182652133Y-115238925D01*
X182661510Y-115216286D01*
X182666291Y-115192253D01*
X182666291Y-115167749D01*
X182661511Y-115143715D01*
X182652134Y-115121076D01*
X182638520Y-115100702D01*
X182621192Y-115083374D01*
X182614274Y-115077697D01*
X182614269Y-115077694D01*
X182541789Y-115018211D01*
X182482306Y-114945731D01*
X182438106Y-114863039D01*
X182410887Y-114773312D01*
X182401697Y-114680000D01*
X182410887Y-114586688D01*
X182438106Y-114496961D01*
X182482306Y-114414269D01*
X182541789Y-114341789D01*
X182614269Y-114282306D01*
X182614274Y-114282303D01*
X182621192Y-114276626D01*
X182638519Y-114259299D01*
X182652133Y-114238925D01*
X182661510Y-114216286D01*
X182666291Y-114192253D01*
X182666291Y-114167749D01*
X182661511Y-114143715D01*
X182652134Y-114121076D01*
X182638520Y-114100702D01*
X182621192Y-114083374D01*
X182614274Y-114077697D01*
X182614269Y-114077694D01*
X182541789Y-114018211D01*
X182482306Y-113945731D01*
X182438106Y-113863039D01*
X182410887Y-113773312D01*
X182401697Y-113680000D01*
X182410887Y-113586688D01*
X182438106Y-113496961D01*
X182482306Y-113414269D01*
X182541789Y-113341789D01*
X182614269Y-113282306D01*
X182614274Y-113282303D01*
X182621192Y-113276626D01*
X182638519Y-113259299D01*
X182652133Y-113238925D01*
X182661510Y-113216286D01*
X182666291Y-113192253D01*
X182666291Y-113167749D01*
X182661511Y-113143715D01*
X182652134Y-113121076D01*
X182638520Y-113100702D01*
X182621192Y-113083374D01*
X182614274Y-113077697D01*
X182614269Y-113077694D01*
X182541789Y-113018211D01*
X182482306Y-112945731D01*
X182438106Y-112863039D01*
X182410887Y-112773312D01*
X182401697Y-112680000D01*
X182410887Y-112586688D01*
X182438106Y-112496961D01*
X182482306Y-112414269D01*
X182541789Y-112341789D01*
X182614269Y-112282306D01*
X182614274Y-112282303D01*
X182621192Y-112276626D01*
X182638519Y-112259299D01*
X182652133Y-112238925D01*
X182661510Y-112216286D01*
X182666291Y-112192253D01*
X182666291Y-112167749D01*
X182661511Y-112143715D01*
X182652134Y-112121076D01*
X182638520Y-112100702D01*
X182621192Y-112083374D01*
X182614274Y-112077697D01*
X182614269Y-112077694D01*
X182541789Y-112018211D01*
X182482306Y-111945731D01*
X182438106Y-111863039D01*
X182410887Y-111773312D01*
X182401697Y-111680000D01*
X182410887Y-111586688D01*
X182438106Y-111496961D01*
X182482306Y-111414269D01*
X182541789Y-111341789D01*
X182614269Y-111282306D01*
X182614274Y-111282303D01*
X182621192Y-111276626D01*
X182638519Y-111259299D01*
X182652133Y-111238925D01*
X182661510Y-111216286D01*
X182666291Y-111192253D01*
X182666291Y-111167749D01*
X182661511Y-111143715D01*
X182652134Y-111121076D01*
X182638520Y-111100702D01*
X182621192Y-111083374D01*
X182614274Y-111077697D01*
X182614269Y-111077694D01*
X182541789Y-111018211D01*
X182482306Y-110945731D01*
X182438106Y-110863039D01*
X182410887Y-110773312D01*
X182401697Y-110680000D01*
X182410887Y-110586688D01*
X182438106Y-110496961D01*
X182482306Y-110414269D01*
X182541789Y-110341789D01*
X182614269Y-110282306D01*
X182614274Y-110282303D01*
X182621192Y-110276626D01*
X182638519Y-110259299D01*
X182652133Y-110238925D01*
X182661510Y-110216286D01*
X182666291Y-110192253D01*
X182666291Y-110167749D01*
X182661511Y-110143715D01*
X182652134Y-110121076D01*
X182638520Y-110100702D01*
X182621192Y-110083374D01*
X182614274Y-110077697D01*
X182614269Y-110077694D01*
X182541789Y-110018211D01*
X182482306Y-109945731D01*
X182438106Y-109863039D01*
X182410887Y-109773312D01*
X182401697Y-109680000D01*
X182410887Y-109586688D01*
X182438106Y-109496961D01*
X182482306Y-109414269D01*
X182541789Y-109341789D01*
X182614269Y-109282306D01*
X182614274Y-109282303D01*
X182621192Y-109276626D01*
X182638519Y-109259299D01*
X182652133Y-109238925D01*
X182661510Y-109216286D01*
X182666291Y-109192253D01*
X182666291Y-109167749D01*
X182661511Y-109143715D01*
X182652134Y-109121076D01*
X182638520Y-109100702D01*
X182621192Y-109083374D01*
X182614274Y-109077697D01*
X182614269Y-109077694D01*
X182541789Y-109018211D01*
X182482306Y-108945731D01*
X182438106Y-108863039D01*
X182410887Y-108773312D01*
X182401697Y-108680000D01*
X182410887Y-108586688D01*
X182438106Y-108496961D01*
X182482306Y-108414269D01*
X182541789Y-108341789D01*
X182614269Y-108282306D01*
X182614274Y-108282303D01*
X182621192Y-108276626D01*
X182638519Y-108259299D01*
X182652133Y-108238925D01*
X182661510Y-108216286D01*
X182666291Y-108192253D01*
X182666291Y-108167749D01*
X182661511Y-108143715D01*
X182652134Y-108121076D01*
X182638520Y-108100702D01*
X182621192Y-108083374D01*
X182614274Y-108077697D01*
X182614269Y-108077694D01*
X182541789Y-108018211D01*
X182482306Y-107945731D01*
X182438106Y-107863039D01*
X182410887Y-107773312D01*
X182401697Y-107680000D01*
X182410887Y-107586688D01*
X182438106Y-107496961D01*
X182482306Y-107414269D01*
X182526606Y-107360289D01*
X182540214Y-107339923D01*
X182549592Y-107317284D01*
X182554372Y-107293251D01*
X182554372Y-107268747D01*
X182549592Y-107244714D01*
X182540214Y-107222075D01*
X182526600Y-107201700D01*
X182509273Y-107184373D01*
X182488899Y-107170760D01*
X182466260Y-107161382D01*
X182429975Y-107156000D01*
X182404000Y-107156000D01*
X182404000Y-106204000D01*
X183356000Y-106204000D01*
X183356000Y-107156000D01*
X183356000Y-107156000D01*
G37*
M02*
